#!OML:ASF F:\VICON\USERDATA\INSTALL\rory3\rory3.ASF
:FULLY-SPECIFIED
:DEGREES
784
root -0.163366 18.0673 31.4897 -3.23037 -1.6317 -5.51297
lowerback 9.95485 0.192652 5.29829
upperback 0.0825396 0.993899 2.24886
thorax -5.45995 0.378065 -0.770926
lowerneck -16.2917 -2.94339 -2.10713
upperneck 21.1942 -3.79559 1.03503
head 9.43926 -1.82311 0.219941
rclavicle 6.75868e-015 3.16068e-014
rhumerus -25.9932 -10.7961 -81.955
rradius 26.9057
rwrist 2.15481
rhand -18.1107 22.6781
rfingers 7.12502
rthumb 8.16345 -7.14417
lclavicle 6.75868e-015 3.16068e-014
lhumerus -32.4396 5.84428 82.6319
lradius 24.8332
lwrist 5.08082
lhand -27.707 18.0847
lfingers 7.12502
lthumb -1.10292 48.0616
rfemur -5.34709 5.54572 32.257
rtibia 27.5275
rfoot -14.9436 -7.96489
rtoes 7.95546
lfemur -21.4523 7.03611 -13.1713
ltibia 66.4786
lfoot -2.54761 -6.82244
ltoes -6.33266
785
root -0.151956 18.0575 31.6527 -3.02501 -1.82096 -5.51806
lowerback 10.0821 0.279434 5.42026
upperback -0.0166315 1.13595 2.21154
thorax -5.62626 0.438822 -0.899936
lowerneck -16.2887 -2.94743 -2.008
upperneck 21.0635 -3.79009 0.889093
head 9.38759 -1.82949 0.155031
rclavicle -1.14301e-015 -2.18663e-015
rhumerus -25.3585 -10.483 -81.9948
rradius 27.0789
rwrist 2.06208
rhand -17.9883 22.7406
rfingers 7.12502
rthumb 8.28161 -7.07712
lclavicle -1.14301e-015 -2.18663e-015
lhumerus -32.997 5.77386 82.7249
lradius 24.8014
lwrist 5.43919
lhand -28.0567 17.7
lfingers 7.12502
lthumb -1.44067 47.6749
rfemur -5.01749 5.58519 32.2587
rtibia 27.5973
rfoot -15.4375 -8.0054
rtoes 8.10979
lfemur -22.6722 6.82082 -13.3533
ltibia 65.4661
lfoot -3.24261 -5.93091
ltoes -5.60629
786
root -0.141517 18.0401 31.8187 -2.86098 -1.99079 -5.64535
lowerback 10.0474 0.352062 5.57835
upperback 0.0380918 1.24737 2.24839
thorax -5.5407 0.492501 -0.965381
lowerneck -16.3432 -2.92408 -1.91333
upperneck 20.8871 -3.74772 0.76147
head 9.33072 -1.81667 0.10154
rclavicle 8.20608e-015 -8.54774e-015
rhumerus -24.5044 -10.1207 -82.0673
rradius 27.2549
rwrist 1.73518
rhand -18.1879 22.5627
rfingers 7.12502
rthumb 8.08897 -7.26244
lclavicle 8.20608e-015 -8.54774e-015
lhumerus -33.253 6.06201 82.7595
lradius 24.5778
lwrist 5.47352
lhand -28.0287 17.4426
lfingers 7.12502
lthumb -1.41364 47.4177
rfemur -4.63674 5.70286 32.422
rtibia 27.7265
rfoot -16.0722 -8.11692
rtoes 8.19327
lfemur -23.6801 6.66625 -13.347
ltibia 64.3546
lfoot -4.42522 -5.07861
ltoes -5.6825
787
root -0.136509 18.013 31.9763 -2.8196 -2.08162 -5.95003
lowerback 10.357 0.348178 5.85056
upperback -0.0364639 1.30729 2.31936
thorax -5.78739 0.507919 -1.05574
lowerneck -16.155 -2.89442 -1.81006
upperneck 20.7773 -3.71711 0.68255
head 9.25348 -1.80454 0.0650845
rclavicle -1.67352e-014 -2.82274e-014
rhumerus -23.9584 -9.55173 -82.2266
rradius 27.5019
rwrist 1.21304
rhand -18.5396 22.962
rfingers 7.12502
rthumb 7.74958 -6.87603
lclavicle -1.67352e-014 -2.82274e-014
lhumerus -33.6202 6.43082 82.6274
lradius 24.3634
lwrist 4.85672
lhand -27.7814 17.6189
lfingers 7.12502
lthumb -1.17481 47.5955
rfemur -4.18943 5.95381 32.8658
rtibia 27.9317
rfoot -16.7656 -8.51231
rtoes 8.29815
lfemur -24.4499 6.57162 -13.0996
ltibia 63.1241
lfoot -5.42345 -4.19719
ltoes -7.50749
788
root -0.128443 17.9927 32.1339 -2.71012 -2.19197 -5.95158
lowerback 10.6551 0.409071 5.93902
upperback -0.227977 1.42916 2.23691
thorax -6.14768 0.551289 -1.21471
lowerneck -15.9204 -2.9772 -1.81513
upperneck 20.8089 -3.86591 0.807612
head 9.22598 -1.86179 0.0931663
rclavicle -4.00365e-015 9.93923e-015
rhumerus -23.7846 -9.196 -82.3387
rradius 27.977
rwrist 0.788899
rhand -18.6624 23.0145
rfingers 7.12502
rthumb 7.63099 -6.82779
lclavicle -4.00365e-015 9.93923e-015
lhumerus -34.2452 6.23547 82.5708
lradius 24.3251
lwrist 4.63976
lhand -27.973 17.5901
lfingers 7.12502
lthumb -1.35988 47.5655
rfemur -3.78906 6.22203 32.9542
rtibia 28.0519
rfoot -17.3666 -8.86693
rtoes 8.74074
lfemur -25.1279 6.31747 -13.2048
ltibia 61.6737
lfoot -5.8061 -3.15149
ltoes -7.26717
789
root -0.113651 17.9779 32.3049 -2.58014 -2.28543 -5.68762
lowerback 10.5502 0.47766 5.78628
upperback -0.15909 1.48094 2.10809
thorax -6.01146 0.584042 -1.27096
lowerneck -16.1698 -3.03113 -1.80948
upperneck 20.722 -3.96105 0.913594
head 9.24532 -1.89257 0.113167
rclavicle -1.42566e-014 1.59028e-015
rhumerus -23.2259 -8.95311 -82.4449
rradius 28.5399
rwrist 0.269052
rhand -18.2486 22.9601
rfingers 7.12502
rthumb 8.03038 -6.86737
lclavicle -1.42566e-014 1.59028e-015
lhumerus -34.4887 6.15712 82.6445
lradius 24.0741
lwrist 5.14793
lhand -28.0746 16.8489
lfingers 7.12502
lthumb -1.45796 46.8237
rfemur -3.31588 6.23917 32.6703
rtibia 28.0797
rfoot -17.7886 -8.96897
rtoes 8.69096
lfemur -25.7485 5.96831 -13.6324
ltibia 59.9048
lfoot -5.92589 -2.21578
ltoes -5.91386
790
root -0.100127 17.9681 32.4818 -2.35081 -2.41271 -5.75156
lowerback 10.2612 0.521085 5.94399
upperback -0.0108177 1.52349 2.06079
thorax -5.6833 0.610792 -1.40976
lowerneck -16.6109 -2.9961 -1.64803
upperneck 20.5886 -3.9303 0.853502
head 9.27468 -1.86979 0.0640796
rclavicle 7.20594e-016 -1.70955e-014
rhumerus -22.2673 -8.75772 -82.6022
rradius 28.7489
rwrist -0.157904
rhand -18.0977 23.1725
rfingers 7.12502
rthumb 8.17608 -6.64931
lclavicle 7.20594e-016 -1.70955e-014
lhumerus -34.4464 6.52418 82.5618
lradius 23.6059
lwrist 5.22931
lhand -28.3845 16.4329
lfingers 7.12502
lthumb -1.7573 46.4054
rfemur -2.84937 6.17943 32.7114
rtibia 27.9532
rfoot -18.1794 -8.95605
rtoes 8.58735
lfemur -26.4266 5.73282 -13.6615
ltibia 57.8782
lfoot -6.15402 -1.42027
ltoes -5.04291
791
root -0.0912773 17.9603 32.655 -2.1641 -2.557 -5.71243
lowerback 10.2479 0.574575 5.88706
upperback -0.0711317 1.58897 2.04397
thorax -5.73619 0.641886 -1.40527
lowerneck -16.632 -2.93725 -1.58204
upperneck 20.5313 -3.85082 0.795058
head 9.25485 -1.83421 0.0435786
rclavicle -2.26801e-014 -2.0276e-014
rhumerus -21.6773 -8.14752 -82.6808
rradius 28.9364
rwrist -0.746721
rhand -18.3305 23.47
rfingers 7.12502
rthumb 7.95132 -6.36045
lclavicle -2.26801e-014 -2.0276e-014
lhumerus -34.9059 6.67615 82.5326
lradius 23.5416
lwrist 5.38858
lhand -28.6743 15.6502
lfingers 7.12502
lthumb -2.03717 45.6202
rfemur -2.29625 6.39551 32.7265
rtibia 27.7196
rfoot -18.3186 -9.2748
rtoes 7.98913
lfemur -26.9272 5.42971 -13.7648
ltibia 55.5972
lfoot -6.41689 -0.527713
ltoes -4.5067
792
root -0.0793455 17.9503 32.8211 -2.10987 -2.64492 -6.01505
lowerback 10.5154 0.598892 6.26309
upperback -0.144681 1.69481 2.07594
thorax -5.9497 0.67584 -1.60285
lowerneck -16.4868 -2.97096 -1.54057
upperneck 20.3985 -3.92218 0.85246
head 9.18337 -1.85943 0.0505732
rclavicle -1.61513e-014 6.55989e-015
rhumerus -21.2915 -8.13144 -82.6801
rradius 29.2717
rwrist -0.85119
rhand -18.3742 23.3535
rfingers 7.12502
rthumb 7.90923 -6.47858
lclavicle -1.61513e-014 6.55989e-015
lhumerus -35.2468 6.80806 82.4035
lradius 23.4167
lwrist 4.87245
lhand -28.5015 16.216
lfingers 7.12502
lthumb -1.87026 46.1875
rfemur -1.59572 6.47891 33.1147
rtibia 27.4203
rfoot -18.4756 -9.55373
rtoes 7.58907
lfemur -27.2471 4.92002 -13.4222
ltibia 53.0908
lfoot -6.37781 0.311471
ltoes -4.85235
793
root -0.067569 17.9411 32.9793 -1.95459 -2.60605 -6.11157
lowerback 10.7803 0.609695 6.41854
upperback -0.224543 1.75525 2.06672
thorax -6.17567 0.692268 -1.71432
lowerneck -16.444 -3.03479 -1.46969
upperneck 20.1977 -4.01557 0.805776
head 9.10452 -1.90406 0.013459
rclavicle -8.10669e-015 -9.54166e-015
rhumerus -20.9965 -8.02086 -82.6788
rradius 29.9488
rwrist -1.23699
rhand -18.4816 23.1821
rfingers 7.12502
rthumb 7.80556 -6.65386
lclavicle -8.10669e-015 -9.54166e-015
lhumerus -35.4175 7.02827 82.3025
lradius 23.1249
lwrist 4.17933
lhand -27.8776 17.7485
lfingers 7.12502
lthumb -1.2677 47.7245
rfemur -1.08328 6.56894 33.2689
rtibia 27.1948
rfoot -18.719 -9.86021
rtoes 7.14576
lfemur -27.6004 4.32704 -13.2831
ltibia 50.2913
lfoot -6.68603 1.21049
ltoes -6.2472
